<?xml version="1.0" encoding="UTF-8"?>
<!DOCTYPE svg PUBLIC "-//W3C//DTD SVG 1.1//EN" "http://www.w3.org/Graphics/SVG/1.1/DTD/svg11.dtd">
<!-- Creator: CorelDRAW X7 -->
<svg xmlns="http://www.w3.org/2000/svg" xml:space="preserve" width="6.0043in" height="2.38328in" version="1.1" style="shape-rendering:geometricPrecision; text-rendering:geometricPrecision; image-rendering:optimizeQuality; fill-rule:evenodd; clip-rule:evenodd"
viewBox="0 0 7898 3135"
 xmlns:xlink="http://www.w3.org/1999/xlink">
 <defs>
  <style type="text/css">
   <![CDATA[
    .fil0 {fill:#545454}
   ]]>
  </style>
 </defs>
 <g id="Layer_x0020_1">
  <metadata id="CorelCorpID_0Corel-Layer"/>
  <path class="fil0" d="M7535 2467c-93,49 -55,28 -152,23 -46,-2 -83,2 -129,1l-330 -14c0,-84 4,-211 16,-290 12,-78 12,-221 14,-302 1,-53 10,-81 10,-147 -1,-129 20,-303 20,-453 33,16 251,28 295,29 103,4 206,9 296,30 18,78 -8,455 -19,553 -9,84 -4,204 -11,285 -7,96 -10,185 -10,285zm-2265 -1960c0,-29 5,-51 16,-72 78,-156 280,-102 413,-65l354 141c2,1 4,2 6,3 23,14 16,9 37,24l129 87c191,137 295,259 417,460 37,60 46,77 35,179 -7,55 -8,148 -16,201 -10,73 4,149 -4,222 -6,56 -11,145 -17,200 -8,70 5,154 -3,224 -15,133 -18,272 -18,425 -81,19 -186,84 -271,113 -19,7 -23,11 -32,14l-11 4c0,0 -15,3 -17,3 -70,18 -83,35 -192,62 -141,36 -319,81 -481,80 -33,0 -64,-1 -96,1l-192 2c-124,2 -292,-22 -414,-51l-188 -47c-79,-15 -98,-32 -152,-85 -26,-26 -34,-33 -50,-68 -89,-184 -185,-472 -189,-668 -2,-81 -18,-156 -7,-234 9,-63 12,-157 18,-229 8,-102 46,-201 67,-297 13,-56 73,-226 103,-271 78,-117 473,-85 599,-55l436 164c214,125 364,-145 175,-260l-29 -14c0,0 -14,-8 -17,-10 -9,-5 -11,-6 -20,-11 -79,-44 -147,-77 -238,-107l-116 -39c-21,-5 -35,14 -35,-26zm207 -493c-53,8 -113,2 -167,21 -2,1 -4,2 -7,3 -61,21 -126,53 -178,97 -52,44 -98,107 -126,170 -8,16 -11,27 -16,43 -24,78 3,126 -81,124 -169,-6 -364,-3 -514,89 -20,13 -20,17 -37,31l-78 80c-1,2 -3,5 -4,6l-68 119c-67,150 -103,297 -143,458 -81,327 -45,732 38,1056 30,120 79,233 127,346 44,104 113,213 211,271 161,96 361,142 537,166 67,10 107,15 170,23 143,18 448,29 597,-2 11,-2 7,-1 18,-2l123 -14c2,0 13,-2 17,-3l38 -5c66,-12 133,-28 194,-42l160 -47c2,-1 5,-1 7,-2 3,-1 6,-1 8,-2l327 -126c67,-24 94,-59 161,-76 61,-16 615,13 709,11 46,0 33,1 74,-14 138,-50 264,-148 267,-316 2,-110 19,-226 19,-336 0,-98 21,-230 20,-344 -1,-225 67,-429 -52,-627 -67,-113 -178,-141 -302,-152 -80,-7 -542,-31 -574,-46 -41,-19 -55,-67 -78,-99 -9,-13 -15,-21 -24,-35 -62,-102 -135,-181 -219,-265 -57,-57 -115,-128 -184,-170 -24,-14 -86,-72 -147,-109 -2,-1 -5,-2 -7,-3 -14,-8 -4,-3 -18,-11 -6,-4 -9,-6 -18,-11 -2,-1 -5,-3 -7,-4 -2,-1 -9,-6 -12,-7 -5,-3 -11,-8 -18,-12l-85 -43c-89,-41 -179,-85 -276,-112 -2,0 -4,-1 -5,-1 -2,-1 -4,-1 -6,-2 0,0 -9,-2 -18,-4 -20,-5 -22,-7 -44,-14 -35,-12 -57,-17 -86,-22l-105 -19c-29,-5 10,3 -18,-3 -3,0 -12,-2 -17,-3l-78 -10c-1,0 -4,1 -5,1z"/>
  <path class="fil0" d="M621 1305l80 -9c40,-7 41,-6 72,-5 27,0 31,1 65,-6 128,-27 66,45 86,190l52 992 -574 11c-36,-11 -37,-24 -38,-70 -1,-171 -30,-470 -29,-621l-20 -414c4,-43 13,-46 56,-51l250 -17zm1468 -493c0,102 46,187 147,187 89,0 160,-72 228,-97 189,-69 132,-71 381,-112 114,-19 406,-43 511,35 38,29 43,62 62,105 93,213 145,445 148,680 1,101 21,133 -4,301 -7,47 -16,99 -21,135l-157 495c-20,42 -41,65 -71,96 -61,61 -168,71 -265,101l-44 10c-1,1 -4,1 -5,2l-144 24c-18,4 -2,0 -25,4 -135,21 -319,35 -456,24 -105,-10 -55,9 -230,-18 -107,-17 -153,-14 -265,-49l-221 -64c-54,-22 -85,-19 -176,-61l-191 -84 -39 -690c-8,-91 -11,-441 -24,-527 -9,-58 -6,-120 -6,-182l126 -189c18,-21 18,-17 36,-43l192 -211c16,-12 30,-18 47,-32 85,-73 150,-106 248,-165 17,-11 32,-20 52,-29 5,-2 22,-9 25,-10l10 -4c1,-1 4,-2 5,-2l175 -64c22,-7 -3,0 25,-10 20,-7 3,0 23,-6 87,-28 120,-25 198,-42 15,-4 11,-3 24,-4 119,-10 222,53 222,191l-71 25c-2,1 -4,1 -6,2 -96,26 -464,167 -464,278zm-2088 522c0,46 -1,93 -1,138l24 419c27,178 14,380 34,558 17,160 102,290 256,335 159,45 703,-38 818,9l220 103c1,1 4,2 5,2 112,44 225,89 340,116 25,6 69,21 111,30l419 67c28,3 58,2 91,4l98 5c107,-1 247,3 367,-19l615 -142c17,-9 14,-10 29,-20l132 -105c73,-72 130,-193 162,-291 33,-97 70,-184 92,-282 62,-286 101,-507 61,-812 -18,-138 -43,-290 -88,-424l-158 -364c-55,-88 -154,-146 -246,-169 -189,-46 -271,-21 -437,-34 -10,-121 -71,-235 -154,-318l-94 -73c-1,-1 -4,-2 -5,-3l-68 -30c-87,-34 -185,-42 -280,-26 -15,3 -7,1 -24,5l-29 6c-22,4 -7,1 -24,5l-520 171c-36,19 -63,38 -99,59l-142 93c-20,12 -3,-1 -25,15 -12,9 -15,14 -25,24 -35,33 -54,39 -106,91l-102 95c-57,52 -162,194 -206,267 -111,183 -115,121 -370,144 -34,3 -92,10 -117,11 -24,1 -89,8 -120,9 -184,8 -294,45 -395,203 -18,27 -39,83 -39,128z"/>
  <path class="fil0" d="M7358 2349c37,-71 30,16 40,-128 4,-50 7,-95 9,-158l26 -477c22,-144 -58,-149 -241,-140 -41,2 -77,25 -81,75 -2,24 2,53 0,79l-19 404c-10,332 -100,345 266,345z"/>
 </g>
</svg>
