<?xml version="1.0" encoding="UTF-8"?>
<!DOCTYPE svg PUBLIC "-//W3C//DTD SVG 1.1//EN" "http://www.w3.org/Graphics/SVG/1.1/DTD/svg11.dtd">
<!-- Creator: CorelDRAW X7 -->
<svg xmlns="http://www.w3.org/2000/svg" xml:space="preserve" width="5.09217in" height="3.68998in" version="1.1" style="shape-rendering:geometricPrecision; text-rendering:geometricPrecision; image-rendering:optimizeQuality; fill-rule:evenodd; clip-rule:evenodd"
viewBox="0 0 5239 3797"
 xmlns:xlink="http://www.w3.org/1999/xlink">
 <defs>
  <style type="text/css">
   <![CDATA[
    .fil0 {fill:#545454}
   ]]>
  </style>
 </defs>
 <g id="Layer_x0020_1">
  <metadata id="CorelCorpID_0Corel-Layer"/>
  <g id="_315691552">
   <path class="fil0" d="M796 1905c57,167 134,371 227,519 13,20 22,41 34,60 41,65 165,248 228,279 26,13 53,17 85,14 43,-5 34,-10 57,-18l277 -108c226,-100 220,96 284,226 30,59 50,131 75,191 54,135 158,300 0,371 -79,34 -182,67 -244,95 -86,38 -194,89 -299,56 -59,-19 -108,-38 -161,-73l-84 -57c-148,-103 -341,-325 -444,-468l-131 -192c-79,-117 -140,-251 -205,-382 -57,-117 -100,-253 -143,-378 -34,-102 -84,-297 -102,-408 -35,-214 -52,-335 -49,-559 1,-59 7,-118 12,-175 5,-58 13,-80 19,-123 12,-87 68,-232 124,-296 45,-51 118,-89 182,-111l161 -63c21,-9 26,-9 67,-26 46,-20 95,-37 147,-28 22,4 50,27 65,47 45,59 161,415 202,496 23,47 57,132 40,187 -21,71 -136,99 -183,120 -73,33 -169,61 -242,91 -111,47 -106,162 -94,264 3,30 5,55 8,85 9,88 60,283 87,364zm1538 1313c-26,-77 -60,-151 -87,-223l-149 -381c-73,-151 -238,-230 -398,-173 -4,1 -6,2 -9,3 -42,11 -124,48 -165,61l-119 46c-10,3 -18,9 -42,17 -17,-17 -33,-40 -50,-61 -146,-174 -274,-478 -341,-695l-49 -197c-7,-41 -16,-81 -21,-123 -5,-40 -5,-82 -9,-121 80,-27 228,-83 297,-115 10,-5 21,-11 24,-12l49 -26c10,-6 9,-4 24,-14l15 -12c0,-1 1,-1 2,-2l40 -38c61,-77 82,-146 75,-244 -6,-95 -113,-319 -147,-419l-55 -142c-37,-80 -68,-165 -134,-224 -28,-25 -61,-44 -97,-56 -49,-18 -138,-29 -190,-11 -3,1 -8,3 -11,4 -76,17 -353,129 -404,155 -76,38 -148,88 -200,158 -49,65 -87,140 -110,219 -15,55 -32,107 -42,164 -22,123 -35,262 -30,395 1,14 1,31 1,45 0,94 12,189 21,284 8,81 28,160 42,245 28,162 84,319 128,477l61 152c7,16 11,35 18,52 12,31 32,65 44,98 37,100 135,264 189,358l103 158c72,104 146,200 223,289 110,129 234,251 376,345 25,15 44,32 70,45 14,7 22,10 35,19 32,21 75,39 112,51 40,12 81,24 123,27l80 1c131,-10 205,-48 317,-96 79,-34 194,-62 260,-116l15 -10c14,-10 22,-19 35,-31 83,-79 119,-211 80,-326z"/>
   <path class="fil0" d="M5080 840c-35,41 -21,24 -69,39 -22,8 -40,16 -62,24l-162 54c-15,-40 -37,-102 -46,-142 -9,-40 -35,-109 -49,-149 -9,-26 -10,-41 -23,-73 -24,-62 -46,-150 -74,-222 19,1 127,-33 148,-41 50,-17 101,-34 148,-40 24,34 81,221 94,270 11,43 36,100 48,140 14,48 29,92 47,140zm-1457 -528c-5,-14 -7,-25 -5,-38 8,-89 116,-101 187,-108l197 3c1,0 3,0 4,1 14,2 9,1 22,4l78 18c118,31 191,71 287,145 29,23 37,29 50,80 7,28 23,73 30,100 8,37 29,72 39,109 7,27 21,71 29,99 9,36 31,74 40,109 17,67 41,135 70,209 -36,24 -75,75 -110,105 -8,6 -9,9 -13,12l-5 4c0,0 -7,4 -8,5 -30,21 -33,32 -81,65 -61,43 -139,98 -218,128 -15,6 -30,11 -46,18l-92 37c-60,24 -145,43 -209,52l-100 12c-41,7 -53,3 -89,-13 -18,-8 -22,-10 -37,-24 -77,-72 -176,-193 -215,-288 -16,-38 -37,-72 -47,-111 -7,-32 -23,-79 -33,-114 -15,-51 -15,-106 -23,-156 -4,-30 -6,-123 0,-150 16,-71 212,-129 279,-138l241 -1c127,21 149,-137 37,-158l-17 -1c0,0 -8,-2 -11,-2 -5,-1 -6,-1 -11,-2 -46,-7 -85,-10 -135,-7l-63 2c-11,2 -14,14 -22,-6zm9 -276c-24,13 -54,22 -77,41 -1,1 -2,2 -3,2 -26,22 -50,49 -68,81 -17,30 -27,69 -29,105 -1,9 -1,15 0,23 3,43 25,61 -16,75 -83,29 -176,66 -232,138 -7,10 -6,12 -12,23l-23 53c0,1 0,2 -1,3l-11 70c-4,85 6,163 16,248 22,173 114,362 214,503 37,52 81,98 125,144 41,42 95,82 153,92 95,16 200,1 290,-19 34,-8 54,-13 86,-21 73,-18 222,-69 288,-111 5,-3 3,-2 9,-5l56 -29c1,-1 6,-4 8,-5l17 -10c30,-18 59,-38 86,-56l69 -52c1,-1 2,-2 3,-2 1,-1 2,-2 3,-3l135 -121c28,-24 34,-46 64,-67 26,-19 299,-107 344,-125 22,-9 16,-6 34,-21 57,-50 99,-120 70,-202 -20,-53 -33,-113 -53,-166 -18,-47 -33,-115 -54,-170 -42,-108 -47,-219 -141,-293 -54,-42 -112,-35 -174,-18 -40,12 -268,86 -286,85 -24,-2 -39,-23 -56,-34 -7,-4 -11,-7 -18,-13 -49,-37 -99,-62 -155,-87 -38,-17 -80,-40 -120,-48 -14,-2 -55,-19 -92,-25 -1,0 -2,-1 -3,-1 -9,-1 -3,0 -11,-2 -4,0 -6,-1 -11,-2 -1,0 -3,0 -4,0 -2,0 -6,-1 -7,-2 -3,0 -7,-1 -11,-2l-49 -5c-51,-3 -103,-8 -154,-3 -1,0 -3,0 -3,1 -1,0 -2,0 -3,0 0,0 -5,1 -10,1 -10,1 -12,1 -24,1 -19,1 -30,3 -45,6l-54 10c-15,3 5,0 -9,2 -2,0 -7,1 -9,2l-40 10c0,0 -1,1 -2,1z"/>
   <path class="fil0" d="M1525 1558l37 -19c18,-10 19,-10 34,-16 13,-4 15,-5 30,-14 57,-37 40,9 77,75l208 470 -275 112c-19,1 -22,-5 -31,-27 -32,-83 -101,-222 -129,-295l-86 -196c-6,-22 -3,-25 17,-35l118 -55zm618 -509c19,49 57,81 106,63 42,-17 63,-65 92,-89 78,-69 50,-59 163,-125 52,-31 188,-96 253,-78 24,7 33,22 50,39 84,86 152,189 197,302 19,48 35,60 54,146 5,24 10,51 15,69l15 268c-1,24 -7,39 -16,60 -18,40 -68,65 -109,97l-19 13c-1,1 -2,2 -3,2l-65 39c-8,5 -1,0 -11,6 -62,35 -147,76 -216,96 -53,15 -25,14 -114,34 -55,11 -77,22 -138,26l-118 9c-30,0 -45,7 -96,4l-108 -6 -147 -326c-21,-43 -87,-211 -109,-250 -15,-26 -25,-57 -37,-87l26 -115c5,-13 6,-11 9,-27l54 -138c6,-8 11,-14 17,-24 28,-51 53,-79 89,-126 7,-8 12,-15 20,-23 2,-2 9,-9 10,-9l4 -4c1,-1 2,-2 3,-2l72 -63c9,-8 -1,0 10,-10 9,-7 2,0 10,-7 37,-29 54,-34 88,-57 7,-4 5,-3 11,-6 56,-27 117,-16 143,51l-30 25c-1,1 -2,2 -2,2 -42,30 -194,167 -173,221zm-912 638c8,22 16,45 25,67l89 198c46,81 77,181 120,263 38,74 103,122 185,115 86,-8 333,-149 397,-147l126 9c1,0 2,0 3,0 62,0 125,1 185,-7 14,-2 38,-3 59,-6l215 -46c14,-3 28,-9 45,-14l48 -16c52,-20 120,-45 174,-77l271 -183c6,-7 5,-7 10,-15l44 -75c22,-48 27,-117 25,-170 -2,-53 0,-102 -8,-154 -23,-150 -45,-263 -121,-403 -34,-64 -74,-133 -121,-189l-143 -146c-43,-33 -102,-43 -151,-36 -100,12 -135,40 -217,64 -27,-57 -78,-101 -134,-125l-58 -18c-1,0 -3,0 -3,-1l-39 -2c-48,0 -97,14 -140,40 -7,4 -3,2 -10,7l-13 8c-10,6 -3,2 -11,7l-220 179c-13,16 -23,30 -36,46l-52 72c-7,9 -2,0 -9,12 -4,6 -5,9 -8,16 -10,22 -19,28 -34,64l-32 64c-18,36 -42,124 -50,167 -20,109 -33,80 -152,138 -16,8 -43,22 -54,27 -12,5 -42,20 -57,27 -87,38 -134,76 -153,171 -4,17 -4,47 5,69z"/>
   <path class="fil0" d="M1487 1687l24 62c10,24 15,25 25,50l98 223c9,16 16,34 29,42 13,7 21,4 30,1 1,0 2,-1 3,-1 1,0 3,-1 4,-1 1,0 63,-21 85,-42 13,-12 8,-10 17,-23 -7,-21 -15,-42 -23,-62 -11,-28 -17,-34 -27,-56 -9,-19 -15,-42 -24,-61 -10,-23 -17,-31 -28,-60 -10,-27 -17,-38 -26,-57 -11,-20 -16,-44 -27,-65 -8,-17 -19,-31 -35,-35 -19,-4 -61,17 -80,28 -14,7 -58,24 -45,57z"/>
   <path class="fil0" d="M4973 815c5,-41 17,3 -4,-69 -8,-25 -15,-47 -26,-78l-75 -235c-16,-74 -56,-61 -142,-23 -20,8 -33,26 -26,51 4,12 11,25 15,38l66 199c56,162 15,185 192,117z"/>
  </g>
 </g>
</svg>
